<?xml version="1.0" encoding="utf-8"?>
<svg viewBox="565.674 220.1445 802.2788 99.9268" xmlns="http://www.w3.org/2000/svg">
  <g id="path191258" aria-label="Y" transform="matrix(1.75, 0, 0, 1.75, 130.7535400390625, 314.896484375)" style="font-style: normal; font-weight: 700; font-size: 72px; line-height: 1; font-family: &quot;Brandmark1 Bold Color&quot;; font-variant-ligatures: normal; text-align: center; text-anchor: middle;">
    <g>
      <g>
        <g id="path191244" aria-label="A" transform="matrix(1, 0, 0, 1, -69.999962, 0)" style="font-style: normal; font-weight: 700; font-size: 72px; line-height: 1; font-family: &quot;Brandmark1 Bold Color&quot;; font-variant-ligatures: normal; text-align: center; text-anchor: middle;">
          <polygon class="c3" points="100.03819,128.08252 91.09854,114.24284 108.90146,114.24284 " transform="translate(244.71858 -125.55748)" stroke-width="0" stroke-linejoin="miter" stroke-miterlimit="2" fill="#463047" stroke="#463047"/>
        </g>
        <g>
          <polygon class="c1" points="279.546 -53.64 269.804 -53.64 248.526 2.525 260.494 2.525 274.658 -36.409 288.944 2.525 300.911 2.525" stroke-width="0" stroke-linejoin="miter" stroke-miterlimit="2" fill="#463047" stroke="#463047"/>
          <path class="c1" d="M 312.871 -50.04 L 324.175 -53.64 L 324.175 -8.204 L 349.45 -8.204 L 349.45 2.525 L 312.871 2.525 L 312.871 -50.04 L 312.871 -50.04 Z" stroke-width="0" stroke-linejoin="miter" stroke-miterlimit="2" fill="#463047" stroke="#463047"/>
          <path class="c1" d="M 362.949 -50.04 L 374.254 -53.64 L 374.254 -8.204 L 399.528 -8.204 L 399.528 2.525 L 362.949 2.525 L 362.949 -50.04 L 362.949 -50.04 Z" stroke-width="0" stroke-linejoin="miter" stroke-miterlimit="2" fill="#463047" stroke="#463047"/>
          <path class="c1" d="M 424.332 -32.55 L 424.332 2.525 L 413.027 2.525 L 413.027 -53.64 L 423.043 -53.64 L 448.166 -18.242 L 448.166 -53.64 L 459.471 -53.64 L 459.471 2.525 L 449.239 2.525 L 424.332 -32.55 Z" stroke-width="0" stroke-linejoin="miter" stroke-miterlimit="2" fill="#463047" stroke="#463047"/>
          <path class="c1" d="M 477.168 2.525 L 513.53 2.525 L 513.53 -7.989 L 477.168 -7.989 L 477.168 2.525 Z M 477.168 -20.085 L 513.53 -20.085 L 513.53 -30.814 L 477.168 -30.814 L 477.168 -20.085 Z M 477.168 -53.64 L 477.168 -42.911 L 513.53 -42.911 L 513.53 -53.64 L 477.168 -53.64 Z" stroke-width="0" stroke-linejoin="miter" stroke-miterlimit="2" fill="#463047" stroke="#463047"/>
          <path class="c1" d="M 562.868 -33.003 L 552.693 2.525 L 542.901 2.525 L 525.022 -53.64 L 537.032 -53.64 L 547.733 -18.832 L 557.526 -53.64 L 568.182 -53.64 L 577.917 -18.89 L 588.682 -53.64 L 600.613 -53.64 L 582.662 2.525 L 572.862 2.525 L 562.868 -33.003 Z" stroke-width="0" stroke-linejoin="miter" stroke-miterlimit="2" fill="#463047" stroke="#463047"/>
          <path class="c1" d="M 610.667 -5.763 L 609.148 -7.391 L 616.586 -16.29 L 618.508 -13.878 C 620.013 -11.992 621.979 -10.444 624.183 -9.407 C 626.256 -8.428 628.496 -7.916 630.656 -7.916 C 633.206 -7.916 635.379 -8.478 636.777 -9.493 C 638.037 -10.408 638.649 -11.632 638.649 -13.245 C 638.649 -15.002 638.109 -16.089 636.734 -17.119 C 635.149 -18.3 632.585 -19.265 629.612 -20.388 C 629.36 -20.481 629.101 -20.582 628.834 -20.683 C 624.751 -22.202 620.828 -23.765 617.68 -26.27 C 615.852 -27.725 614.498 -29.331 613.54 -31.174 C 612.475 -33.219 611.935 -35.545 611.935 -38.087 C 611.935 -42.515 613.85 -46.612 617.321 -49.623 C 620.691 -52.539 625.219 -54.144 630.081 -54.144 C 636.359 -54.144 642.487 -51.883 647.793 -47.613 L 649.709 -46.065 L 642.803 -37.079 L 640.788 -38.735 C 637.238 -41.665 633.334 -43.343 630.081 -43.343 C 627.056 -43.343 623.513 -42.033 623.456 -38.339 C 623.434 -36.69 624.226 -35.79 625.428 -34.947 C 627.15 -33.738 629.885 -32.694 632.781 -31.585 L 632.809 -31.578 C 633.263 -31.397 633.716 -31.217 634.17 -31.045 C 638.267 -29.439 642.141 -27.927 645.079 -25.507 C 648.549 -22.642 650.242 -18.869 650.242 -13.965 C 650.242 -11.308 649.673 -8.838 648.549 -6.621 C 647.491 -4.546 645.979 -2.739 644.035 -1.249 C 640.493 1.459 635.718 2.957 630.584 2.957 C 622.995 2.957 615.924 -0.139 610.667 -5.763 Z" stroke-width="0" stroke-linejoin="miter" stroke-miterlimit="2" fill="#463047" stroke="#463047"/>
          <path class="c1" d="M 676.166 -22.109 L 656.833 -53.64 L 669.959 -53.64 L 681.848 -33.925 L 693.679 -53.64 L 706.971 -53.64 L 687.472 -22.109 L 687.472 2.525 L 676.166 2.525 L 676.166 -22.109 Z" stroke-width="0" stroke-linejoin="miter" stroke-miterlimit="2" fill="#463047" stroke="#463047"/>
        </g>
      </g>
    </g>
  </g>
</svg>